<?xml version="1.0" encoding="utf-8"?>
<!-- Generator: Adobe Illustrator 24.0.0, SVG Export Plug-In . SVG Version: 6.00 Build 0)  -->
<svg version="1.1" id="layer_1" xmlns="http://www.w3.org/2000/svg" xmlns:xlink="http://www.w3.org/1999/xlink" x="0px" y="0px"
	 viewBox="0 0 256 256" style="enable-background:new 0 0 256 256;" xml:space="preserve">
<style type="text/css">
	.st0{fill:#FFD900;}
	.st1{fill:#35495E;}
	.st2{fill:#FFFFFF;}
</style>
<rect class="st0" width="256" height="256"/>
<path class="st1" d="M242.22,44.91c1.12-4.02,7.75-7.38,9.16-7.85c-1.68,1.22-2.43,4.11-2.05,4.95c1.31-3.55,5.04-4.95,5.8-5.33
	c-0.66,1.59-0.47,3.08,0.46,2.99c0.14-0.28,0.27-0.55,0.41-0.82v-7.92C242.2,38.01,242.47,42.16,242.22,44.91z M256,9.44v2.26
	c-6.54,1.71-15.56,4.84-25.55,10.96c-3.93,2.34-20.1,12.24-29.91,34.3c-1.83,4.11-5.05,19.11-6.36,27.4
	c-1.5,8.58-5.61,34.75-23.56,48.96c-2.76,2.18-18.32,14.68-35.42,10.37c-3.21-0.81-11.49-5.14-12.71-7.29
	c-0.47-0.09-1.96,0.19-2.52,2.99c1.31,1.21,15.04,8.31,28.04,6.45c5.05-0.84,23.27-3.93,34.21-22.06
	c2.22-3.7,10.56-14.39,14.95-42.62c0.56,2.61-0.66,26.91-13.36,44.11c-1.78,2.8-18.04,25.42-45.89,22.34
	c-5.51-0.84-15.04-3.08-18.13-5.14c-0.47-0.28-1.12-1.03-2.43,0.75c-0.75,1.4-2.52,3.27-4.86,4.11c0.09,1.12,0.93,4.58-1.5,4.77
	c-1.55,0.22-3.08-0.1-3.08-1.46c0-0.08,0.01-0.16,0.02-0.24c0-0.01,0-0.03,0.01-0.05c0.02-0.17,0.07-0.36,0.14-0.55
	c0-0.01,0-0.01,0-0.01c0.03-0.1,0.07-0.2,0.12-0.31c0.01-0.01,0.01-0.02,0.01-0.02c0.01-0.01,0.01-0.03,0.02-0.04
	c0.07-0.16,0.16-0.32,0.25-0.5c0.14-0.14,0.26-0.25,0.37-0.36c0.27-0.24,0.49-0.41,0.68-0.55c0.06-0.05,0.12-0.08,0.18-0.12
	c0.01-0.01,0.02-0.01,0.02-0.01c0.05-0.04,0.1-0.07,0.15-0.1c0.01-0.01,0.02-0.01,0.03-0.02c0.04-0.03,0.08-0.05,0.13-0.08
	c0.02-0.02,0.05-0.03,0.07-0.05c0.05-0.03,0.08-0.06,0.13-0.08c0.43-0.28,0.85-0.66,1.7-1.92c1.12-1.22,5.01-5.05,4.58-7.95
	c0.19-1.31,0.06-1.87-0.44-2.9c0,0-8.98,6.85-10.47,17.45c-0.25,3.62-1.37,10.09,6.36,6.6c4.11-1.74,9.84-5.11,11.72-9.1
	c2.12,0.25,20.56,4.73,41.12-4.11c6.98-3.24,28.41-10.97,40.5-47.1c-1.49-1-1.87-1.49-1.87-1.49l0.25-1.12
	c0,0,11.71,2.74,31.28-1.38c1.12,0.5,1.25,0.88,1.25,0.88s-2.12,1.37-3.11,1.87c0.75,1.12,4.86,7.35,8.47,8.6
	c1.12,0.62,3.49,1.49,4.86-2.49c1.74-3.87,3.24-5.98,2.37-8.85c-1.74,0-21.98,1.41-24.3-19.06c1.74,2.24,6.63,19.8,30.78,15.58
	c0.23-0.01,0.47-0.01,0.72-0.02v2.9c-1.33,0.26-3,0.48-4.71,0.48c0,10.84-4.73,14.71-4.73,14.71s0.25,25.42,0.37,30.03
	c1,4.36,0.62,4.99,0.75,8.1c0.5,3.49-2.86,15.58-2.86,15.58s-5.73,30.9-6.23,37.51s4.48,6.98,6.87,9.22
	c2.51,4.11,0.73,5.11-0.02,5.11c0.25-1.49-1.75-3.36-3.81-4.11c-2.31-0.38-5.54-1.75-7.41-2.5c-3.87,3.24-10.59,3.74-14.33,4.49
	c-7.35,0.12-9.72,2.24-11.84,2.86c-1,0.25-2.37,1.12-2.24,0c0.12-3.61,9.47-6.36,11.09-7.1c-7.1-0.5-10.96,1.37-12.71,2.25
	c-1.6,0.8-1.5-0.38-1.38-1.13c2.87-5.23,9.23-5.1,13.15-5.1c12.15-1.87,16.45-12.71,18.51-18.13c1.87-5.24,5.05-27.66,5.42-32.15
	c-0.56-9.72,0.93-10.28,1.31-12.34c0.75-2.24,0.37-7.48,0-11.4c-1.68-13.46-1.31-16.08-1.49-19.63c-5.42-4.67-8.41-11.03-10.1-11.96
	c-8.22,0.75-20.19,1.49-20.19,1.49c-15.89,35.33-29.53,41.12-34.95,44.68c-20,12.52-47.67,8.41-50.09,8.04
	c-3.74,6.36-10.66,8.78-12.15,9.53c-4.86,12.71-10.84,17.95-10.84,17.95c-0.75-11.47,0.88-20.06,0.88-20.06s0-1.49,0.5-6.85
	c1.87-17.94,8.72-20.31,11.09-22.43c2.37-2.12,4.36-1.37,6.98-1.49c9.72-9.6,8.98-17.95,7.98-23.8c-1-5.86-7.36-3.49-7.23-2.86
	c3.19,1.26,2.5,3.36,1.75,5.1c-0.56,1.18-1.58,1.62-2.6,1.65c-1.8,0.04-3.29-1.35-3.64-3.11c-0.44-2.16,0.37-3.89,1.5-5.11
	c1.23-1.34,2.98-2.07,4.79-2.25c3.57-0.35,6.3,0.78,8.36,2.54c2.41,2.06,3.77,5.07,4.08,8.22c1.31,13.27-7.86,22.96-10.25,25.35
	c17.57,17.08,42.12-3.24,45.86-6.6c15.33-11.34,18.82-37.76,19.44-42.12c2.37-24.42,6.11-31.15,8.6-36.39
	c15.7-24.05,31.4-30.91,35.02-32.53c6.85-5.86,9.84-7.85,14.58-10.22c1.65-0.83,4.2-1.29,6.96-1.52v2.42V9.44z"/>
<g>
	<g>
		<path class="st2" d="M256,30.93V11.7c-6.54,1.71-15.56,4.84-25.55,10.96c-3.93,2.34-20.1,12.24-29.91,34.3
			c-1.83,4.11-5.05,19.11-6.36,27.4c-1.5,8.58-5.61,34.75-23.56,48.96c-2.76,2.18-18.32,14.68-35.42,10.37
			c-3.21-0.81-11.49-5.14-12.71-7.29c-0.47-0.09-1.96,0.19-2.52,2.99c1.31,1.21,15.04,8.31,28.04,6.45
			c5.05-0.84,23.27-3.93,34.21-22.06c2.22-3.7,10.56-14.39,14.95-42.62c0.56,2.61-0.66,26.91-13.36,44.11
			c-1.78,2.8-18.04,25.42-45.89,22.34c-5.51-0.84-15.04-3.08-18.13-5.14c-0.47-0.28-1.12-1.03-2.43,0.75
			c-0.75,1.4-2.52,3.27-4.86,4.11c0.09,1.12,0.93,4.58-1.5,4.77c-1.55,0.22-3.08-0.1-3.08-1.46c0-0.08,0.01-0.16,0.02-0.24
			c0-0.01,0-0.03,0.01-0.05c0.02-0.17,0.07-0.36,0.14-0.55c0-0.01,0-0.01,0-0.01c0.03-0.1,0.07-0.2,0.12-0.31
			c0.01-0.01,0.01-0.02,0.01-0.02c0.01-0.01,0.01-0.03,0.02-0.04c0.15-0.32,0.36-0.62,0.63-0.85c0.27-0.24,0.49-0.41,0.68-0.55
			c0.06-0.05,0.12-0.08,0.18-0.12c0.01-0.01,0.02-0.01,0.02-0.01c0.05-0.04,0.1-0.07,0.15-0.1c0.01-0.01,0.02-0.01,0.03-0.02
			c0.04-0.03,0.08-0.05,0.13-0.08c0.02-0.02,0.05-0.03,0.07-0.05c0.05-0.03,0.08-0.06,0.13-0.08c0.43-0.28,0.85-0.66,1.7-1.92
			c1.12-1.22,5.01-5.05,4.58-7.95c0.19-1.31,0.06-1.87-0.44-2.9c0,0-8.98,6.85-10.47,17.45c-0.25,3.62-1.37,10.09,6.36,6.6
			c4.11-1.74,9.84-5.11,11.72-9.1c2.12,0.25,20.56,4.73,41.12-4.11c6.98-3.24,28.41-10.97,40.5-47.1c-1.49-1-1.87-1.49-1.87-1.49
			l0.25-1.12c0,0,11.71,2.74,31.28-1.38c1.12,0.5,1.25,0.88,1.25,0.88s-2.12,1.37-3.11,1.87c0.75,1.12,4.86,7.35,8.47,8.6
			c1.12,0.62,3.49,1.49,4.86-2.49c1.74-3.87,3.24-5.98,2.37-8.85c-1.74,0-21.98,1.41-24.3-19.06c1.74,2.24,6.63,19.8,30.78,15.58
			c0.23-0.01,0.47-0.01,0.72-0.02V49.47c-4.74,0.78-8.98,1.73-11.69,2.35c-7.1,1.62-9.84,0.62-9.84,0.62
			c7.54-3.99,14.98-5.82,21.53-6.45v-7.14c-0.14,0.27-0.28,0.54-0.41,0.82c-0.93,0.1-1.12-1.4-0.46-2.99
			c-0.75,0.37-4.49,1.78-5.8,5.33c-0.37-0.84,0.37-3.74,2.05-4.95c-1.4,0.47-8.04,3.83-9.16,7.85
			C242.47,42.16,242.2,38.01,256,30.93z"/>
		
			<ellipse transform="matrix(0.3429 -0.9394 0.9394 0.3429 -83.0961 209.8947)" class="st2" cx="108.48" cy="164.34" rx="2.9" ry="1.03"/>
	</g>
	<path class="st2" d="M256,8.36c-8.31,1.11-14.18,6.45-14.18,6.45c4.43-2.38,10.15-4.22,14.18-5.38V8.36z"/>
</g>
<path class="st1" d="M256,45.99v3.48c-4.74,0.78-8.98,1.73-11.69,2.35c-7.1,1.62-9.84,0.62-9.84,0.62
	C242,48.46,249.44,46.62,256,45.99z"/>
<g>
	<g>
		<path class="st2" d="M244.11,112.79v0.57c-0.78,0.07-1.56-0.05-2.28-0.35c-0.03-0.25-0.05-0.48-0.07-0.66
			C242.49,112.72,243.31,112.87,244.11,112.79z"/>
		<path class="st2" d="M244.11,114.71v0.57c-0.69,0.05-1.38,0.03-2.07-0.02c-0.02-0.2-0.03-0.39-0.05-0.57
			C242.7,114.75,243.41,114.76,244.11,114.71z"/>
		<path class="st2" d="M244.11,116v0.57c-0.65,0.07-1.3,0.13-1.95,0.19c-0.01-0.19-0.03-0.38-0.04-0.56
			C242.78,116.13,243.45,116.06,244.11,116z"/>
		<path class="st2" d="M244.11,117.79v0.57c-0.66-0.12-1.3-0.35-1.87-0.7c-0.01,0-0.01-0.01-0.01-0.01
			c-0.01-0.15-0.02-0.29-0.03-0.44c0.08-0.08,0.2-0.12,0.33-0.05C243.02,117.47,243.55,117.68,244.11,117.79z"/>
		<path class="st2" d="M244.11,119.5v0.64c-0.31,0.13-0.64,0.16-0.96,0.11c-0.28-0.04-0.53-0.15-0.75-0.31
			c-0.02-0.26-0.03-0.53-0.06-0.78c0.07,0.02,0.13,0.06,0.18,0.12c0.01,0.01,0.02,0.02,0.02,0.03c0.01,0.02,0.03,0.03,0.04,0.05
			c0.03,0.03,0.06,0.06,0.1,0.09c0.01,0.01,0.02,0.02,0.03,0.02c0.01,0.01,0.03,0.02,0.04,0.03c0.04,0.02,0.07,0.05,0.11,0.07
			c0.03,0.02,0.06,0.03,0.09,0.05c0.01,0.01,0.05,0.02,0.05,0.02c0.02,0.01,0.03,0.01,0.05,0.02c0.08,0.03,0.16,0.05,0.25,0.06
			c0.01,0.01,0.02,0.01,0.02,0.01c0.02,0,0.05,0,0.07,0.01h0.13c0.02-0.01,0.05-0.01,0.07-0.01c0.01,0,0.02,0,0.02-0.01
			c0.04-0.01,0.08-0.01,0.12-0.02c0.05-0.01,0.08-0.02,0.12-0.03c0.02-0.01,0.05-0.02,0.06-0.02c0.01,0,0.01,0,0.01,0
			c0.01,0,0.01-0.01,0.01-0.01C244,119.57,244.05,119.54,244.11,119.5z"/>
		<path class="st2" d="M244.11,121.29v0.57l-1.57,0.16c-0.01-0.19-0.03-0.37-0.04-0.56L244.11,121.29z"/>
		<path class="st2" d="M243.57,123.16c-0.19-0.06-0.37-0.12-0.56-0.18c-0.07-0.02-0.16-0.01-0.22,0.03
			c-0.06,0.03-0.11,0.1-0.13,0.17c-0.04,0.16,0.05,0.3,0.2,0.35l0.56,0.18c0.07,0.02,0.16,0.01,0.22-0.03
			c0.06-0.03,0.11-0.1,0.13-0.17C243.81,123.35,243.72,123.21,243.57,123.16z"/>
		<path class="st2" d="M243.98,124.9c0.01,0.15-0.14,0.28-0.28,0.28h-0.94c-0.01-0.19-0.02-0.38-0.03-0.57h0.97
			C243.85,124.62,243.97,124.75,243.98,124.9z"/>
		<path class="st2" d="M244.11,126.51v0.58l-0.54,0.11c-0.16,0.03-0.3-0.05-0.35-0.2c-0.05-0.14,0.05-0.32,0.2-0.35
			C243.66,126.6,243.88,126.55,244.11,126.51z"/>
		<path class="st2" d="M244.11,128.54v0.57h-0.98c-0.05,0-0.1-0.01-0.14-0.03v-0.01c-0.01-0.16-0.02-0.31-0.03-0.47
			c0.05-0.03,0.1-0.06,0.16-0.06H244.11z"/>
		<path class="st2" d="M244.22,130.6h-1.13c-0.01-0.19-0.02-0.38-0.03-0.57h1.07C244.15,130.15,244.18,130.34,244.22,130.6z"/>
		<path class="st2" d="M244.42,132.15c-0.33-0.08-0.66-0.16-0.99-0.25c-0.15-0.04-0.23-0.2-0.2-0.35c0.04-0.15,0.21-0.24,0.35-0.2
			c0.25,0.06,0.51,0.12,0.76,0.19C244.37,131.74,244.4,131.93,244.42,132.15z"/>
		<path class="st2" d="M244.62,133.78h-0.55c-0.16,0-0.28-0.13-0.28-0.28c-0.01-0.15,0.14-0.28,0.28-0.28h0.48
			C244.57,133.39,244.6,133.58,244.62,133.78z"/>
		<path class="st2" d="M244.79,135.47h-1.1c-0.16,0-0.28-0.13-0.28-0.28c-0.01-0.15,0.14-0.28,0.28-0.28h1.04
			C244.75,135.09,244.77,135.27,244.79,135.47z"/>
		<path class="st2" d="M244.94,137.06c-0.23,0.11-0.5,0.14-0.75,0.06c-0.15-0.05-0.23-0.19-0.2-0.35c0.03-0.15,0.21-0.24,0.35-0.2
			c0.02,0.01,0.04,0.01,0.06,0.01c0.05,0.01,0.1,0.01,0.15,0c0.04-0.01,0.08-0.02,0.12-0.03c0.05-0.02,0.09-0.05,0.13-0.07
			c0,0,0,0,0.01,0c0.02-0.02,0.05-0.04,0.07-0.05C244.9,136.64,244.92,136.85,244.94,137.06z"/>
		<path class="st2" d="M245.06,138.71c-0.24,0.05-0.49,0.1-0.72,0.14c-0.15,0.03-0.29-0.05-0.35-0.2c-0.05-0.14,0.05-0.32,0.2-0.35
			c0.28-0.05,0.55-0.11,0.83-0.16C245.03,138.34,245.05,138.52,245.06,138.71z"/>
		<path class="st2" d="M245.16,140.42c-0.22,0.03-0.42,0.07-0.64,0.11c-0.16,0.02-0.3-0.05-0.35-0.2c-0.04-0.14,0.06-0.32,0.2-0.35
			c0.25-0.04,0.5-0.08,0.76-0.14C245.14,140.03,245.15,140.23,245.16,140.42z"/>
		<path class="st2" d="M245.22,142h-0.59c-0.16,0-0.28-0.12-0.28-0.28c-0.01-0.15,0.14-0.28,0.28-0.28h0.57
			C245.21,141.62,245.22,141.81,245.22,142z"/>
		<path class="st2" d="M245.28,144.02c-0.03,0.01-0.05,0.01-0.08,0.01c-0.5-0.06-1-0.12-1.5-0.19c-0.15-0.02-0.27-0.11-0.28-0.28
			c-0.01-0.14,0.14-0.3,0.28-0.28c0.5,0.07,1,0.13,1.5,0.19c0.03,0.01,0.05,0.01,0.07,0.02
			C245.27,143.66,245.28,143.84,245.28,144.02z"/>
		<path class="st2" d="M245.28,145.16c0,0.19,0,0.37-0.01,0.56c-0.02,0-0.03-0.01-0.05-0.01c-0.11,0-0.22,0.01-0.32,0.02h-0.03
			c-0.02,0.01-0.05,0.01-0.07,0.02c-0.06,0.01-0.11,0.02-0.16,0.04c-0.05,0.01-0.1,0.03-0.15,0.05c-0.01,0.01-0.03,0.01-0.05,0.02
			c-0.01,0-0.01,0-0.02,0.01c-0.01,0.01-0.03,0.01-0.03,0.02c-0.15,0.07-0.3,0.04-0.39-0.1c-0.08-0.12-0.03-0.32,0.1-0.38
			C244.48,145.21,244.87,145.13,245.28,145.16z"/>
		<path class="st2" d="M245.26,146.77c-0.01,0.2-0.01,0.4-0.02,0.61h-0.01c-0.02-0.01-0.05-0.03-0.08-0.05
			c-0.01,0-0.05-0.02-0.06-0.02c-0.05-0.02-0.11-0.04-0.16-0.06c-0.03-0.01-0.06-0.01-0.1-0.02c-0.01-0.01-0.05-0.01-0.06-0.01
			c-0.05-0.01-0.1-0.01-0.15-0.01c-0.05,0-0.1,0.01-0.16,0.01c-0.01,0-0.05,0.01-0.06,0.01c-0.03,0.01-0.06,0.02-0.09,0.02
			c-0.03,0.01-0.06,0.02-0.09,0.03c-0.01,0.01-0.05,0.02-0.06,0.02c-0.05,0.02-0.1,0.05-0.15,0.08c-0.14,0.08-0.31,0.03-0.38-0.1
			c-0.08-0.13-0.02-0.31,0.1-0.38C244.19,146.63,244.77,146.58,245.26,146.77z"/>
		<path class="st2" d="M245.17,148.92c-0.01,0.19-0.02,0.38-0.03,0.57h-1.82c-0.16,0-0.28-0.13-0.28-0.28
			c0-0.15,0.13-0.28,0.28-0.28H245.17z"/>
		<path class="st2" d="M245.08,150.22c-0.01,0.19-0.03,0.37-0.05,0.54c-0.42,0.06-0.85,0.12-1.27,0.18
			c-0.15,0.02-0.29-0.03-0.35-0.2c-0.02-0.07-0.01-0.16,0.03-0.22c0.03-0.06,0.1-0.12,0.17-0.13c0.44-0.06,0.87-0.12,1.31-0.19
			C244.98,150.21,245.03,150.21,245.08,150.22z"/>
		<path class="st2" d="M244.44,151.72h-0.75c-0.15,0-0.29,0.13-0.28,0.28c0.01,0.15,0.12,0.28,0.28,0.28h0.75
			c0.15,0,0.29-0.13,0.28-0.28C244.72,151.85,244.6,151.72,244.44,151.72z"/>
		<path class="st2" d="M243.78,153.8c-0.01-0.05-0.04-0.09-0.07-0.12c-0.02-0.01-0.04-0.03-0.06-0.04
			c-0.04-0.03-0.09-0.04-0.14-0.04h-0.19c-0.04,0-0.08,0.01-0.11,0.02c-0.04,0.01-0.07,0.03-0.09,0.06
			c-0.03,0.03-0.05,0.06-0.06,0.09c-0.02,0.03-0.03,0.07-0.02,0.11c0,0.03,0.01,0.05,0.01,0.08c0.01,0.05,0.04,0.09,0.07,0.12
			c0.02,0.01,0.04,0.03,0.06,0.04c0.04,0.03,0.09,0.04,0.14,0.04h0.19c0.04,0,0.08-0.01,0.11-0.02c0.04-0.01,0.07-0.03,0.09-0.06
			c0.03-0.03,0.05-0.06,0.06-0.09c0.02-0.03,0.03-0.07,0.02-0.11C243.79,153.85,243.78,153.82,243.78,153.8z"/>
		<path class="st2" d="M244.32,155.45c-0.04,0.19-0.08,0.38-0.14,0.57c-0.05-0.02-0.09-0.05-0.13-0.07
			c-0.01-0.01-0.01-0.01-0.02-0.01c-0.02-0.01-0.04-0.02-0.06-0.03c-0.01,0-0.02-0.01-0.02-0.01c-0.02-0.01-0.03-0.01-0.05-0.02
			c-0.04-0.01-0.08-0.02-0.12-0.03h-0.16c0,0,0,0-0.01,0.01c0,0,0,0-0.01,0c-0.05,0.01-0.08,0.02-0.13,0.03
			c-0.01,0-0.01,0-0.02,0.01c-0.02,0.01-0.04,0.02-0.05,0.02c-0.02,0.01-0.04,0.02-0.06,0.03c0,0-0.01,0.01-0.01,0.01
			c-0.12,0.1-0.28,0.11-0.4,0c-0.11-0.1-0.12-0.31,0-0.4c0.22-0.18,0.48-0.28,0.75-0.28C243.92,155.27,244.13,155.34,244.32,155.45z
			"/>
		<path class="st2" d="M243.87,157.75c-0.02,0.15-0.05,0.31-0.07,0.48c-0.03,0.01-0.07,0.02-0.1,0.02c-0.55-0.06-1.08-0.2-1.57-0.44
			c0.04-0.21,0.08-0.4,0.11-0.58c0.45,0.23,0.98,0.4,1.46,0.45C243.76,157.69,243.83,157.71,243.87,157.75z"/>
		<path class="st2" d="M243.54,159.89c-0.03,0.2-0.06,0.42-0.1,0.63c-0.06-0.01-0.12-0.03-0.15-0.08c-0.05-0.05-0.1-0.1-0.15-0.14
			c-0.01-0.01-0.02-0.02-0.03-0.03c0,0-0.01-0.01-0.02-0.02c-0.01-0.01-0.02-0.01-0.02-0.02c-0.01-0.01-0.03-0.02-0.04-0.02
			c-0.05-0.04-0.11-0.07-0.16-0.1c-0.03-0.02-0.06-0.03-0.09-0.05c-0.01,0-0.01-0.01-0.02-0.01c-0.01,0-0.02-0.01-0.02-0.01
			c-0.12-0.05-0.25-0.09-0.38-0.1c-0.02,0-0.03,0-0.05-0.01c-0.03,0-0.07,0-0.1-0.01c-0.07,0-0.13,0.01-0.2,0.01
			c-0.12,0.01-0.23-0.08-0.27-0.2v-0.01c0.02-0.09,0.03-0.18,0.05-0.26c0.05-0.06,0.14-0.1,0.22-0.1
			C242.56,159.33,243.12,159.52,243.54,159.89z"/>
		<path class="st2" d="M243.26,161.65c-0.03,0.18-0.06,0.36-0.08,0.54c-0.59,0.34-1.39,0.25-1.88-0.22
			c0.04-0.18,0.07-0.35,0.11-0.52c0.08-0.01,0.18,0.01,0.24,0.07c0.03,0.03,0.06,0.06,0.09,0.08c0,0,0,0,0.01,0.01
			c0.01,0.01,0.02,0.02,0.04,0.02c0.06,0.04,0.12,0.07,0.18,0.11c0.01,0,0.01,0,0.01,0c0.01,0.01,0.03,0.01,0.04,0.02
			c0.03,0.01,0.07,0.02,0.1,0.03c0.03,0.01,0.07,0.02,0.11,0.02c0,0,0.03,0.01,0.04,0.01c0.01,0.01,0.01,0.01,0.01,0.01
			c0.07,0.01,0.15,0.01,0.23,0c0.01,0,0.03,0,0.05-0.01c0,0,0,0,0.01,0c0.03-0.01,0.07-0.01,0.1-0.02c0.03-0.01,0.07-0.02,0.1-0.03
			c0.02-0.01,0.03-0.01,0.05-0.02c0.01,0,0.01,0,0.01-0.01c0.06-0.03,0.12-0.06,0.18-0.1C243.07,161.6,243.18,161.61,243.26,161.65z
			"/>
		<g>
			<path class="st2" d="M241.61,164.17c0,0.01,0.01,0.01,0.02,0.01C241.62,164.18,241.61,164.18,241.61,164.17
				C241.61,164.17,241.61,164.17,241.61,164.17z"/>
			<path class="st2" d="M242.21,164.56c-0.12,0.07-0.33,0.03-0.38-0.1c-0.03-0.06-0.06-0.11-0.09-0.16
				c-0.01-0.01-0.02-0.02-0.03-0.03c-0.02-0.02-0.04-0.04-0.06-0.06c0,0-0.01-0.01-0.02-0.01c0-0.01-0.01-0.01-0.01-0.01v-0.01
				c-0.01,0-0.01,0-0.01,0c-0.02-0.02-0.05-0.03-0.07-0.05c-0.02-0.02-0.05-0.03-0.07-0.04c-0.01-0.01-0.01-0.01-0.01-0.01
				c-0.01-0.01-0.02-0.01-0.02-0.01c-0.06-0.02-0.11-0.03-0.18-0.05h-0.01c-0.01,0-0.01,0-0.02-0.01c-0.01,0-0.01,0-0.01,0
				c-0.01,0-0.01,0-0.01,0h-0.14c-0.01,0-0.01,0.01-0.02,0.01h-0.01c-0.02,0-0.03,0.01-0.05,0.01c-0.03,0.01-0.05,0.02-0.07,0.02
				c0,0,0,0-0.01,0h-0.01v0.01c-0.01,0-0.01,0-0.01,0.01c-0.01,0-0.02,0.01-0.02,0.01c-0.01,0-0.01,0.01-0.01,0.01
				c0.05-0.21,0.08-0.42,0.13-0.62c0.2-0.03,0.4-0.01,0.58,0.06c0.31,0.11,0.6,0.33,0.74,0.65
				C242.38,164.32,242.35,164.47,242.21,164.56z"/>
			<path class="st2" d="M240.9,164.07c0.01,0,0.01,0,0.02-0.01c0,0,0,0,0,0C240.91,164.06,240.91,164.07,240.9,164.07z"/>
			<path class="st2" d="M241.23,164.02c0.01,0,0.02,0,0.02,0c0,0,0,0-0.01,0C241.24,164.02,241.23,164.02,241.23,164.02z"/>
		</g>
		<path class="st2" d="M242.74,164.94c-0.03,0.19-0.06,0.38-0.1,0.58c-0.02-0.01-0.03-0.02-0.06-0.03
			c-0.01-0.01-0.02-0.01-0.03-0.01c0,0,0,0-0.01-0.01c-0.12-0.05-0.25-0.08-0.38-0.1c-0.02,0-0.04,0-0.06-0.01
			c-0.03,0-0.06-0.01-0.09-0.01c-0.07,0-0.13,0-0.2,0.01c-0.16,0.01-0.28-0.14-0.28-0.28c-0.01-0.16,0.14-0.27,0.28-0.28
			C242.13,164.77,242.45,164.82,242.74,164.94z"/>
		<path class="st2" d="M242.43,166.85c-0.02,0.12-0.04,0.24-0.06,0.37c-0.07,0.05-0.17,0.07-0.25,0.05
			c-0.56-0.13-1.11-0.26-1.68-0.39c-0.05-0.01-0.1-0.04-0.12-0.07c0.03-0.15,0.06-0.31,0.1-0.46c0.06-0.02,0.12-0.02,0.18-0.01
			c0.56,0.13,1.12,0.26,1.68,0.39C242.34,166.75,242.39,166.79,242.43,166.85z"/>
		<path class="st2" d="M241.9,168.9c-0.67,0.11-1.36,0.01-1.95-0.32c0.04-0.2,0.08-0.39,0.12-0.58c0.01,0.01,0.02,0.01,0.03,0.02
			c0.27,0.16,0.5,0.26,0.81,0.33c0.03,0.01,0.07,0.01,0.11,0.02c0.02,0.01,0.04,0.01,0.06,0.01h0.02c0.07,0.01,0.15,0.01,0.22,0.02
			c0.07,0,0.15,0,0.22-0.01c0.04-0.01,0.08-0.01,0.12-0.01c0.02,0,0.02-0.01,0.03-0.01c0.02,0,0.03,0,0.05-0.01
			c0.15-0.02,0.31,0.04,0.35,0.2C242.13,168.69,242.05,168.88,241.9,168.9z"/>
		<path class="st2" d="M241.87,170.2c-0.02,0.12-0.05,0.25-0.06,0.37c0,0-0.01,0-0.01,0.01c-0.07,0.05-0.16,0.07-0.25,0.05
			c-0.07-0.02-0.15-0.04-0.23-0.06c-0.02,0-0.04-0.01-0.06-0.01c-0.01,0-0.01,0-0.02,0c-0.04-0.01-0.08-0.01-0.12-0.01h-0.22
			c-0.04,0.01-0.08,0.01-0.12,0.01c-0.02,0-0.03,0-0.05,0.01c0,0-0.01,0-0.03,0.01c-0.32,0.06-0.55,0.15-0.82,0.33
			c-0.13,0.09-0.32,0.02-0.39-0.1c0-0.01-0.01-0.01-0.01-0.02c0.02-0.11,0.05-0.22,0.07-0.33c0.01-0.01,0.02-0.02,0.04-0.03
			c0.61-0.42,1.4-0.54,2.11-0.33C241.78,170.1,241.83,170.15,241.87,170.2z"/>
		<path class="st2" d="M241.47,172.44L241.47,172.44c-0.03,0.2-0.07,0.39-0.1,0.58c0,0-0.01,0.01-0.01,0.01
			c-0.13,0.05-0.32-0.05-0.35-0.2c-0.01-0.03-0.02-0.07-0.03-0.1c-0.01-0.02-0.02-0.03-0.02-0.05c0,0-0.01-0.01-0.01-0.02
			c-0.01-0.01-0.02-0.02-0.02-0.02c-0.01-0.01-0.02-0.02-0.03-0.03c0-0.01,0-0.01,0-0.01c-0.03-0.02-0.06-0.04-0.09-0.06
			c-0.01-0.01-0.02-0.01-0.03-0.01c0,0-0.01-0.01-0.02-0.01c-0.03-0.01-0.06-0.02-0.1-0.03c-0.01,0-0.02-0.01-0.03-0.01
			c0,0,0,0-0.01,0c-0.03,0-0.07-0.01-0.11,0c-0.02,0-0.04,0-0.06,0.01h-0.03c-0.09,0.02-0.18,0.05-0.26,0.08
			c-0.01,0.01-0.01,0.01-0.02,0.01c0,0.01-0.01,0.01-0.01,0.01s0,0-0.01,0.01c-0.02,0.01-0.04,0.02-0.06,0.02
			c-0.05,0.02-0.08,0.04-0.12,0.06c-0.08,0.05-0.16,0.09-0.24,0.14c-0.14,0.08-0.31,0.03-0.39-0.1c-0.08-0.12-0.02-0.31,0.1-0.38
			c0.4-0.24,0.83-0.46,1.31-0.38C241.03,171.99,241.33,172.17,241.47,172.44z"/>
		<path class="st2" d="M240.96,175.27c-0.02,0.1-0.03,0.19-0.06,0.29c0.01,0,0,0.01,0,0.01c-0.07,0.08-0.18,0.12-0.28,0.08
			c-0.12-0.05-0.24-0.08-0.36-0.12c-0.06-0.02-0.11-0.03-0.17-0.04c-0.03-0.01-0.07-0.01-0.1-0.02c0,0-0.03-0.01-0.05-0.01
			c-0.11-0.01-0.23-0.02-0.34-0.02c-0.06,0-0.12,0.01-0.19,0.01c-0.02,0.01-0.05,0.01-0.08,0.01c-0.01,0.01-0.04,0.01-0.06,0.01
			c-0.15,0.02-0.29-0.04-0.35-0.2c-0.05-0.14,0.05-0.33,0.2-0.35c0.55-0.07,1.12-0.02,1.64,0.19
			C240.87,175.13,240.93,175.19,240.96,175.27z"/>
		<path class="st2" d="M240.56,177.41c-0.03,0.14-0.06,0.28-0.08,0.41c-0.06,0.04-0.14,0.06-0.22,0.03
			c-0.56-0.18-1.16-0.24-1.73-0.15c-0.15,0.03-0.31-0.03-0.35-0.19c-0.03-0.14,0.05-0.33,0.2-0.35c0.68-0.11,1.37-0.07,2.03,0.14
			C240.48,177.33,240.53,177.36,240.56,177.41z"/>
		<path class="st2" d="M239.91,178.87c-0.39-0.19-0.83-0.28-1.26-0.23c-0.08,0.01-0.14,0.03-0.2,0.08c-0.05,0.05-0.09,0.13-0.08,0.2
			c0.01,0.14,0.13,0.3,0.28,0.28c0.09-0.01,0.18-0.02,0.28-0.01c0.05,0,0.09,0,0.14,0.01c0,0,0.02,0,0.04,0
			c-0.04,0,0.03,0.01,0.04,0.01c0.09,0.02,0.18,0.04,0.27,0.07c0.04,0.01,0.1,0.02,0.13,0.05c-0.01,0-0.02-0.01-0.03-0.01
			c0.01,0.01,0.02,0.01,0.04,0.02c0.02,0.01,0.05,0.02,0.07,0.03c0.13,0.07,0.31,0.04,0.39-0.1
			C240.08,179.13,240.05,178.94,239.91,178.87z"/>
		<path class="st2" d="M239.9,180.71c-0.03,0.18-0.07,0.35-0.11,0.53c-0.03,0.01-0.06,0.01-0.09-0.01
			c-0.65-0.19-1.31-0.24-1.98-0.15c-0.15,0.02-0.28-0.15-0.28-0.28c0-0.17,0.13-0.27,0.28-0.28c0.71-0.09,1.44-0.03,2.13,0.18
			C239.86,180.7,239.88,180.7,239.9,180.71z"/>
		<path class="st2" d="M238.66,182.27c-0.06-0.05-0.12-0.08-0.2-0.08h-0.37c-0.07,0-0.15,0.03-0.2,0.08
			c-0.03,0.03-0.05,0.06-0.06,0.09c-0.02,0.03-0.03,0.07-0.02,0.11c0,0.07,0.03,0.15,0.08,0.2c0.06,0.05,0.12,0.08,0.2,0.08h0.37
			c0.07,0,0.15-0.03,0.2-0.08c0.03-0.03,0.05-0.06,0.06-0.09c0.02-0.03,0.03-0.07,0.02-0.11
			C238.74,182.4,238.72,182.32,238.66,182.27z"/>
		<path class="st2" d="M239.37,183.21c-0.03,0.17-0.07,0.34-0.11,0.51c-0.02,0.01-0.03,0.01-0.05,0.01
			c-0.75-0.06-1.5-0.12-2.25-0.19c-0.08-0.01-0.16-0.04-0.21-0.1v-0.01c0.03-0.15,0.07-0.3,0.1-0.45c0.03-0.01,0.07-0.02,0.11-0.02
			c0.75,0.06,1.49,0.12,2.25,0.19C239.26,183.17,239.32,183.18,239.37,183.21z"/>
		<path class="st2" d="M238.97,184.96c-0.04,0.19-0.08,0.37-0.12,0.55c-0.55-0.15-1.11-0.19-1.69-0.14
			c-0.16,0.01-0.28-0.15-0.28-0.28c-0.01-0.16,0.14-0.27,0.28-0.28C237.76,184.75,238.38,184.8,238.97,184.96z"/>
		<path class="st2" d="M238.27,186.3h-1.31c-0.15,0-0.29,0.13-0.28,0.28c0.01,0.15,0.12,0.28,0.28,0.28h1.31
			c0.15,0,0.29-0.13,0.28-0.28C238.55,186.43,238.43,186.3,238.27,186.3z"/>
		<path class="st2" d="M238.18,188.21C238.19,188.21,238.18,188.21,238.18,188.21c-0.06,0.23-0.11,0.45-0.18,0.67
			c-0.06-0.02-0.11-0.06-0.13-0.11c-0.02-0.04-0.04-0.07-0.06-0.11c-0.01-0.02-0.02-0.03-0.03-0.05c0,0-0.02-0.02-0.02-0.03
			c-0.01-0.01-0.02-0.02-0.02-0.02c-0.02-0.02-0.03-0.03-0.05-0.05c-0.03-0.03-0.06-0.06-0.08-0.08c-0.01-0.02-0.03-0.03-0.05-0.04
			c0-0.01,0,0-0.01-0.01c-0.03-0.02-0.06-0.05-0.1-0.06c-0.03-0.02-0.06-0.04-0.1-0.06c-0.02-0.01-0.04-0.02-0.06-0.03
			c-0.01,0-0.01,0-0.01-0.01c-0.07-0.03-0.15-0.05-0.23-0.07c-0.02-0.01-0.03-0.01-0.06-0.01c0,0-0.01-0.01-0.02-0.01
			c-0.01,0-0.03,0-0.03-0.01h-0.06c-0.03-0.01-0.07-0.01-0.11,0h-0.06c-0.01,0-0.02,0.01-0.03,0.01c-0.07,0.01-0.14,0.03-0.21,0.05
			c-0.15,0.05-0.31-0.06-0.35-0.2c-0.05-0.15,0.06-0.3,0.2-0.35C237,187.43,237.76,187.68,238.18,188.21z"/>
		<path class="st2" d="M237.42,190.05c-0.05-0.15-0.19-0.23-0.35-0.2c-0.03,0.01-0.06,0.01-0.09,0.02c-0.01,0,0,0-0.01,0
			c0,0,0,0-0.01,0c-0.05,0-0.11,0.01-0.16,0.01c-0.1,0-0.21,0-0.31-0.01c-0.01,0-0.02,0-0.03,0c-0.02,0-0.05-0.01-0.07-0.01
			c-0.05-0.01-0.11-0.02-0.16-0.04c-0.05-0.01-0.1-0.03-0.15-0.05c-0.02-0.01-0.05-0.01-0.06-0.03c0.06,0.03-0.03-0.01-0.04-0.02
			c-0.13-0.06-0.31-0.04-0.39,0.1c-0.07,0.13-0.04,0.32,0.1,0.39c0.48,0.23,1.01,0.29,1.53,0.19
			C237.37,190.37,237.47,190.19,237.42,190.05z"/>
		<path class="st2" d="M237.22,191.66c-0.05,0.18-0.11,0.36-0.16,0.54c-0.55-0.08-1.11-0.18-1.67-0.27
			c-0.15-0.02-0.23-0.21-0.2-0.35c0.04-0.16,0.2-0.23,0.35-0.2C236.1,191.48,236.66,191.57,237.22,191.66z"/>
		<path class="st2" d="M236.76,193.11c-0.06,0.17-0.11,0.33-0.17,0.5c-0.03,0-0.06,0-0.08-0.01c-0.55-0.22-1.1-0.43-1.65-0.65
			c-0.15-0.06-0.24-0.19-0.2-0.35c0.03-0.14,0.21-0.25,0.35-0.2c0.55,0.22,1.1,0.43,1.65,0.65
			C236.7,193.07,236.73,193.09,236.76,193.11z"/>
		<g>
			<path class="st2" d="M235.93,195.1c-0.05-0.14-0.2-0.24-0.35-0.2c-0.03,0.01-0.06,0.02-0.1,0.02c-0.01,0-0.02,0-0.03,0
				c-0.03,0-0.06,0-0.09,0c-0.02,0-0.03,0-0.05,0c-0.06-0.01-0.12-0.03-0.18-0.05c-0.01,0-0.02-0.01-0.02-0.01c0,0-0.01,0-0.01,0
				c-0.03-0.01-0.06-0.03-0.09-0.05c-0.03-0.02-0.05-0.03-0.08-0.05c0,0,0,0,0,0c-0.01-0.01-0.02-0.01-0.02-0.02
				c-0.03-0.02-0.05-0.04-0.07-0.07c-0.01-0.01-0.02-0.02-0.03-0.04c0,0,0,0,0,0c0,0,0,0,0.01,0.01c0-0.01-0.01-0.01-0.01-0.02
				c0,0,0,0,0,0c-0.03-0.04-0.06-0.09-0.08-0.13c-0.01-0.03-0.01-0.05,0,0.01c0-0.01-0.01-0.03-0.02-0.05
				c-0.01-0.03-0.02-0.06-0.03-0.1c-0.03-0.14-0.21-0.24-0.35-0.2c-0.15,0.05-0.23,0.19-0.2,0.35c0.16,0.69,0.94,1.14,1.61,0.94
				C235.87,195.4,235.97,195.24,235.93,195.1z"/>
			<path class="st2" d="M234.8,194.63c-0.02-0.03-0.02-0.03-0.01-0.01c0,0,0,0,0,0C234.79,194.62,234.79,194.63,234.8,194.63z"/>
		</g>
		<path class="st2" d="M235.18,196.61c-0.02-0.07-0.07-0.13-0.13-0.17c-0.19-0.12-0.37-0.25-0.56-0.37
			c-0.06-0.04-0.15-0.05-0.22-0.03c-0.04,0.01-0.07,0.03-0.1,0.06l-0.18-0.18c-0.1-0.1-0.3-0.11-0.4,0c-0.1,0.11-0.11,0.29,0,0.4
			c0.31,0.31,0.62,0.62,0.93,0.93c0.1,0.1,0.3,0.11,0.4,0c0.08-0.08,0.1-0.2,0.06-0.3c0.06-0.02,0.13-0.07,0.16-0.13
			C235.18,196.76,235.2,196.68,235.18,196.61z"/>
		<path class="st2" d="M233.83,198.16c-0.07,0.13-0.27,0.19-0.38,0.1c-0.36-0.24-0.71-0.49-1.06-0.74c0.11-0.15,0.22-0.31,0.32-0.46
			c0.34,0.23,0.68,0.47,1.02,0.71C233.85,197.86,233.9,198.01,233.83,198.16z"/>
		<path class="st2" d="M235.9,200.02c-1.22-0.35-2.36-0.95-3.34-1.75c-0.12-0.1-0.28-0.12-0.4,0c-0.1,0.1-0.12,0.3,0,0.4
			c1.06,0.87,2.28,1.52,3.59,1.9C236.1,200.67,236.25,200.12,235.9,200.02z"/>
		<path class="st2" d="M235.35,201.5c-1.55-0.25-2.96-1.03-3.99-2.21c-0.24-0.28-0.64,0.13-0.4,0.4c1.09,1.25,2.61,2.09,4.24,2.35
			c0.15,0.02,0.3-0.04,0.35-0.2C235.59,201.72,235.5,201.53,235.35,201.5z"/>
		<path class="st2" d="M236.26,203.39c-0.15,0.12-0.32,0.26-0.52,0.41c-0.67-0.17-1.35-0.33-2.03-0.5c-0.36-0.08-0.2-0.63,0.15-0.54
			c0.75,0.18,1.5,0.37,2.25,0.55C236.18,203.31,236.23,203.35,236.26,203.39z"/>
		<path class="st2" d="M233.07,204.31c-0.49-0.39-1.09-0.61-1.71-0.6c-0.15,0-0.29,0.13-0.28,0.28c0.01,0.15,0.12,0.29,0.28,0.28
			c0.07,0,0.13,0,0.2,0c0.03,0,0.07,0.01,0.1,0.01c0.01,0,0.01,0,0.01,0c0.01,0,0.02,0,0.04,0.01c0.12,0.02,0.25,0.05,0.37,0.09
			c0.03,0.01,0.06,0.02,0.09,0.03c0.01,0,0.02,0.01,0.03,0.01c0,0,0,0,0.01,0.01c0.05,0.02,0.11,0.05,0.16,0.08
			c0.06,0.03,0.12,0.07,0.17,0.1c0.03,0.02,0.06,0.04,0.08,0.06c0.01,0.01,0.02,0.01,0.02,0.02c0,0,0.01,0.01,0.02,0.01
			c0.11,0.09,0.29,0.12,0.4,0C233.17,204.6,233.19,204.41,233.07,204.31z"/>
		<path class="st2" d="M231.76,205.24c-0.24-0.19-0.49-0.39-0.73-0.58c-0.06-0.05-0.12-0.08-0.2-0.08c-0.07,0-0.15,0.03-0.2,0.08
			c-0.05,0.05-0.09,0.12-0.08,0.2c0,0.07,0.03,0.15,0.08,0.2c0.24,0.19,0.49,0.39,0.73,0.58c0.06,0.05,0.12,0.08,0.2,0.08
			c0.07,0,0.15-0.03,0.2-0.08c0.05-0.05,0.09-0.12,0.08-0.2C231.84,205.37,231.82,205.29,231.76,205.24z"/>
		<path class="st2" d="M230.85,206.58c-0.18,0.08-0.36,0.17-0.54,0.25c-0.28-0.27-0.55-0.54-0.83-0.81c-0.11-0.11-0.1-0.29,0-0.4
			c0.11-0.11,0.29-0.11,0.4,0c0.31,0.31,0.63,0.62,0.94,0.92C230.84,206.56,230.85,206.57,230.85,206.58z"/>
		<path class="st2" d="M228.26,207.78c-0.13,0.06-0.25,0.11-0.38,0.17c-0.03-0.01-0.06-0.02-0.08-0.05
			c-0.31-0.32-0.62-0.63-0.93-0.94c-0.01-0.01-0.02-0.02-0.02-0.02c0.16-0.11,0.32-0.22,0.48-0.32l0.88,0.88
			C228.27,207.59,228.29,207.69,228.26,207.78z"/>
		<path class="st2" d="M226.77,208.41c-0.17,0.07-0.34,0.14-0.51,0.21l-0.78-0.78c0.16-0.11,0.32-0.22,0.48-0.32
			c0.24,0.24,0.49,0.49,0.73,0.73C226.74,208.3,226.77,208.36,226.77,208.41z"/>
		<path class="st2" d="M225.33,208.97c-0.22,0.08-0.42,0.15-0.62,0.22c-0.19-0.16-0.38-0.31-0.58-0.46c0.15-0.1,0.32-0.22,0.49-0.33
			C224.86,208.59,225.1,208.77,225.33,208.97z"/>
		<path class="st2" d="M223.34,209.61c-0.19,0.06-0.36,0.1-0.53,0.14c-0.06-0.03,0.11-0.18,0.44-0.42
			C223.28,209.43,223.3,209.52,223.34,209.61z"/>
		<path class="st2" d="M223.53,206.04c-0.26,0.1-0.5,0.19-0.75,0.29h-0.01c-0.01,0-0.01,0-0.01,0h-0.01
			c-0.08-0.01-0.17-0.02-0.25-0.05c-0.15-0.05-0.23-0.19-0.2-0.35c0.03-0.15,0.2-0.24,0.35-0.2c0.02,0.01,0.05,0.01,0.07,0.02h0.15
			c0.04-0.01,0.08-0.02,0.12-0.04c0.05-0.02,0.09-0.05,0.13-0.07c0.12-0.11,0.28-0.11,0.4,0
			C223.63,205.74,223.64,205.95,223.53,206.04z"/>
		<path class="st2" d="M226.75,204.79c-0.27,0.1-0.54,0.21-0.81,0.32c-0.27-0.05-0.55-0.08-0.82-0.13c-0.16-0.03-0.23-0.22-0.2-0.35
			c0.04-0.16,0.2-0.22,0.35-0.2c0.43,0.07,0.87,0.14,1.3,0.21C226.66,204.65,226.72,204.72,226.75,204.79z"/>
		<path class="st2" d="M227.65,203.77c0.07-0.09,0.09-0.21,0.03-0.32c-0.09-0.14-0.21-0.25-0.35-0.34
			c-0.01-0.01-0.01-0.02-0.02-0.03c-0.03-0.06-0.11-0.11-0.17-0.13c-0.05-0.01-0.12-0.01-0.17,0.01c-0.09-0.02-0.18-0.03-0.28-0.02
			c-0.08,0.01-0.14,0.03-0.2,0.08c-0.05,0.05-0.09,0.13-0.08,0.2c0,0.07,0.03,0.15,0.08,0.2c0.05,0.05,0.13,0.09,0.2,0.08
			c0.04,0,0.08,0,0.12,0c0.03,0.01,0.06,0.02,0.09,0.02c0.1,0.19,0.19,0.38,0.29,0.58c0.03,0.06,0.11,0.11,0.17,0.13
			c0.07,0.02,0.16,0.01,0.22-0.03c0.14-0.09,0.17-0.25,0.1-0.39C227.67,203.81,227.66,203.79,227.65,203.77z"/>
		<path class="st2" d="M229.56,202.96c-0.12-0.38-0.23-0.75-0.35-1.13c-0.04-0.14-0.2-0.25-0.35-0.2c-0.14,0.05-0.24,0.2-0.2,0.35
			c0.12,0.38,0.23,0.75,0.35,1.13c0.04,0.14,0.2,0.25,0.35,0.2C229.5,203.26,229.61,203.11,229.56,202.96z"/>
		<path class="st2" d="M231.19,202.07c-0.31-0.25-0.63-0.5-0.94-0.74c-0.06-0.05-0.12-0.08-0.2-0.08c-0.07,0-0.15,0.03-0.2,0.08
			c-0.05,0.05-0.09,0.12-0.08,0.2c0,0.07,0.03,0.15,0.08,0.2c0.31,0.25,0.63,0.5,0.94,0.74c0.06,0.05,0.12,0.08,0.2,0.08
			c0.07,0,0.15-0.03,0.2-0.08c0.05-0.05,0.09-0.12,0.08-0.2C231.27,202.21,231.25,202.12,231.19,202.07z"/>
	</g>
</g>
</svg>
